<?xml version="1.0" standalone="no"?>
<!DOCTYPE svg PUBLIC "-//W3C//DTD SVG 1.1//EN" "http://www.w3.org/Graphics/SVG/1.1/DTD/svg11.dtd" >
<svg xmlns="http://www.w3.org/2000/svg">
<defs>
<font id="DpQuake" horiz-adv-x="278" >
  <font-face 
    font-family="DpQuake"
    font-weight="400"
    font-stretch="normal"
    units-per-em="1000"
    panose-1="0 0 4 0 0 0 0 0 0 0"
    ascent="800"
    descent="-200"
    x-height="449"
    cap-height="800"
    bbox="-0.135338 -343 934 834"
    underline-thickness="20"
    underline-position="-123"
    unicode-range="U+0020-U+2026"
  />
<missing-glyph horiz-adv-x="364" 
d="M33 0v666h265v-666h-265zM66 33h199v600h-199v-600z" />
    <glyph glyph-name=".notdef" horiz-adv-x="364" 
d="M33 0v666h265v-666h-265zM66 33h199v600h-199v-600z" />
    <glyph glyph-name=".null" horiz-adv-x="0" 
 />
    <glyph glyph-name="nonmarkingreturn" horiz-adv-x="333" 
 />
    <glyph glyph-name="space" unicode=" " horiz-adv-x="500" 
 />
    <glyph glyph-name="exclam" unicode="!" horiz-adv-x="179" 
d="M127 0q18 0 31 12.5t13 30.5t-13 31t-31 13t-30.5 -13t-12.5 -31t12.5 -30.5t30.5 -12.5zM137 153l34 647l-171 -37q68 -29 137 -610z" />
    <glyph glyph-name="quotedbl" unicode="&#x22;" horiz-adv-x="384" 
d="M168 729q0 -74 -88 -138l-22 -16h-14q-2 0 -2 2q0 4 8 12q56 40 56 94q0 39 -36 58q-20 10 -20 26q0 18 13 30t31 12q31 0 52.5 -24.5t21.5 -55.5zM336 727q0 -74 -88 -138l-22 -16h-14q-2 0 -2 2q0 4 8 12q56 40 56 94q0 39 -36 58q-20 10 -20 26q0 18 13 30t31 12
q31 0 52.5 -24.5t21.5 -55.5z" />
    <glyph glyph-name="numbersign" unicode="#" horiz-adv-x="496" 
d="M458 313l-8 -35h-99l-41 -131h96l-8 -35h-99l-35 -113h-35l35 113h-101l-35 -113h-34l35 113h-96l8 35h99l40 131h-95l8 35h98l35 113h36l-35 -113h100l35 113h35l-35 -113h96zM316 278h-100l-42 -131h101z" />
    <glyph glyph-name="dollar" unicode="$" horiz-adv-x="403" 
d="M346 107q0 -60 -37.5 -93t-98.5 -37v-209q0 -17 -2 -20q-3 -7 -16 -7q-20 0 -20 21v215q-10 0 -18 2l-46 11q-30 7 -36 10q-9 4 -10 12l-15 86q-2 9 2 9l10 2q2 1 8 -8l30 -45q43 -64 108 -64q42 0 67 22.5t25 63.5q0 30 -18 45q-14 12 -84 41q-73 31 -88 41
q-47 30 -47 77q0 84 113 120v228q0 15 11 15l10 -1q15 -1 15 -20v-213q27 5 45 5q44 0 44 -25q0 -8 -3 -17l-8 -24q-7 -22 -19 -22q-9 0 -25 17q-22 24 -60 24q-75 0 -75 -60q0 -30 32 -50q12 -7 58 -24q76 -28 98 -42q50 -33 50 -86z" />
    <glyph glyph-name="percent" unicode="%" horiz-adv-x="744" 
d="M647 95q0 -46 -35 -77.5t-82 -31.5q-45 0 -78.5 31.5t-33.5 76.5q0 49 33.5 84t82.5 35q48 0 80.5 -35t32.5 -83zM501 420l-258 -452l-25 14l260 451zM311 311q0 -46 -35 -77.5t-82 -31.5q-45 0 -78.5 31.5t-33.5 76.5q0 49 33.5 84t82.5 35q48 0 80.5 -35t32.5 -83z
M607 95q0 33 -22 58t-54 25q-33 0 -55 -23t-22 -56q0 -31 22.5 -51.5t53.5 -20.5q30 0 53.5 19t23.5 49zM271 311q0 33 -22 58t-54 25q-33 0 -55 -23t-22 -56q0 -31 22.5 -51.5t53.5 -20.5q30 0 53.5 19t23.5 49z" />
    <glyph glyph-name="ampersand" unicode="&#x26;" horiz-adv-x="508" 
d="M450 226q0 -7 -13 -9l-32 -4q-25 -3 -25 -50v-124q0 -6 1 -17t1 -17q0 -9 -6 -9q-4 0 -18.5 14.5t-27.5 14.5q-6 0 -27 -9q-42 -18 -91 -18q-56 0 -97 28q-47 31 -47 84q0 92 119 105l38 4v2q-129 22 -129 112q0 55 52 81q40 21 100 21q21 0 61 -14t34 -14q2 0 8.5 4
t7.5 4q11 0 11 -13v-22q0 -22 2 -41l1 -21q0 -23 -9 -23q-6 0 -7 12q-4 44 -30 74q-29 34 -71 34q-98 0 -98 -98q0 -43 36 -66q30 -21 75 -21h117l51 5q13 1 13 -9zM320 100v79q0 29 -19 29h-50q-48 0 -78 -25q-33 -26 -33 -73q0 -39 27 -64t66 -25q37 0 62 21.5t25 57.5z
" />
    <glyph glyph-name="quotesingle" unicode="'" 
d="M201 465q0 -41 -25 -78.5t-62 -59.5l-24 -14l-8 -1h-5q-2 7 7 14q56 41 56 94q0 40 -37 59q-21 11 -21 25q0 18 14 30t32 12q30 0 51.5 -25t21.5 -56z" />
    <glyph glyph-name="parenleft" unicode="(" horiz-adv-x="306" 
d="M97 402q-3 -126 27 -227q41 -135 132 -175q-120 15 -181 156q-48 111 -45 249q2 133 51 242q62 139 175 153q-152 -72 -159 -398z" />
    <glyph glyph-name="parenright" unicode=")" horiz-adv-x="306" 
d="M209 402q3 -128 -26 -227q-40 -134 -133 -175q120 15 181 156q48 111 45 249q-2 133 -51 242q-62 139 -175 153q152 -72 159 -398z" />
    <glyph glyph-name="asterisk" unicode="*" horiz-adv-x="324" 
d="M162 790l17 -77l62 48l-36 -70l79 -3l-73 -30l58 -54l-75 24l10 -78l-42 67l-42 -67l10 78l-75 -24l58 54l-73 30l79 3l-37 70l63 -48z" />
    <glyph glyph-name="plus" unicode="+" horiz-adv-x="765" 
d="M646 258q0 -16 -12 -16h-232v-233q0 -10 -16 -10h-9q-15 0 -15 13v231h-226q-16 0 -16 13q-1 2 -1 10q0 17 12 17h231v225q0 16 12 16q4 1 11 1q17 0 17 -12v-231h235q9 0 9 -16v-8z" />
    <glyph glyph-name="comma" unicode="," 
d="M202 8q0 -74 -88 -138l-22 -16h-14q-2 0 -2 2q0 4 8 12q56 40 56 94q0 39 -36 58q-20 10 -20 26q0 18 13 30t31 12q31 0 52.5 -24.5t21.5 -55.5z" />
    <glyph glyph-name="uni2010" unicode="-" horiz-adv-x="333" 
d="M306 244q0 -15 -21 -15h-244q-15 0 -15 16v12q0 15 22 15h243q15 0 15 -16v-12z" />
    <glyph glyph-name="period" unicode="." 
d="M197 47q0 -23 -17 -40t-40 -17t-40 17t-17 40t17 40t40 17t40 -17t17 -40z" />
    <glyph glyph-name="slash" unicode="/" horiz-adv-x="356" 
d="M255 800l84 -27l-339 -773z" />
    <glyph glyph-name="zero" unicode="0" horiz-adv-x="840" 
d="M400 800q-167 0 -283.5 -116.5t-116.5 -283.5t116.5 -283.5t283.5 -116.5t283.5 116.5t116.5 283.5t-116.5 283.5t-283.5 116.5zM400 90q-129 0 -219.5 90.5t-90.5 219.5t90.5 219.5t219.5 90.5t219.5 -90.5t90.5 -219.5t-90.5 -219.5t-219.5 -90.5z" />
    <glyph glyph-name="one" unicode="1" horiz-adv-x="307" 
d="M209 722q13 64 57 78h-226q57 -12 57 -80l1 -642q-10 -66 -58 -79l227 1q-58 18 -58 76v646z" />
    <glyph glyph-name="two" unicode="2" horiz-adv-x="510" 
d="M2 113h325q137 0 158 83l-64 -196h-419v113zM194 794q-91 6 -151 -43v-1l-43 50l2 -207q23 37 56 66q59 53 124 53q54 0 102 -33q19 -13 40 -38q43 -51 56 -115q-241 7 -334 -179q-39 -78 -44 -187q12 244 267 244q90 0 183 -29q7 235 -125 350q-55 48 -133 69z" />
    <glyph glyph-name="three" unicode="3" horiz-adv-x="449" 
d="M427 264q-4 82 -75 147q-60 54 -148 82l50 20q87 35 89 137q3 124 -166 149q-79 0 -140 -42l-37 43v-182q11 139 141 154q119 -1 116 -140q-3 -112 -152 -119q-18 2 -34 3h-2q1 0 4 -1q98 -29 164 -89q80 -71 84 -162q5 -96 -78 -171q-67 -61 -171 -93q132 7 235 68
q126 75 120 196z" />
    <glyph glyph-name="four" unicode="4" horiz-adv-x="640" 
d="M473 316h-63v484l-410 -565h335v-167q0 -17 -10 -33q-21 -34 -73 -35h243q-85 27 -85 70v165h110l3 -16l83 156q-36 -59 -133 -59zM99 316l236 330v-330h-236zM609 381z" />
    <glyph glyph-name="five" unicode="5" horiz-adv-x="427" 
d="M73 752l-73 -340q43 9 82 9q166 0 232 -144q14 -40 14 -85q0 -130 -119 -192q115 5 168 117q22 46 29 110q0 104 -47 175q-51 76 -150 102q-65 17 -132 12l20 157h251l1 127l-42 -48h-234z" />
    <glyph glyph-name="six" unicode="6" horiz-adv-x="571" 
d="M353 800q-133 5 -227 -103q-81 -92 -110 -233q-15 -72 -15 -136q0 -190 113 -278q55 -44 124 -49q-123 58 -128 239q-6 189 128 253q-59 -5 -110 -38q-3 101 54 202q66 117 171 143zM544 254q-3 94 -66 162.5t-156 75.5q119 -57 125 -243t-125 -249q98 8 161.5 82
t60.5 172z" />
    <glyph glyph-name="seven" unicode="7" horiz-adv-x="467" 
d="M399 646q2 10 2 17q0 36 -37 36h-219q-116 0 -144 -75l58 176h386zM1 624q0 -1 -1 -4zM391 617l-292 -616l202 -1q-49 12 -49 103q0 163 139 514z" />
    <glyph glyph-name="eight" unicode="8" horiz-adv-x="579" 
d="M146 618q-5 140 99 182q-78 -6 -133 -54q-60 -52 -57 -128q3 -72 61 -121q54 -44 129 -50q-57 23 -79 67q-18 36 -20 104zM401 624q5 -138 -92 -178q78 6 131 55q58 52 55 128q-3 72 -61 121q-54 44 -129 50q91 -37 96 -176zM111 227q-6 166 132 221q-99 -7 -170 -66
q-76 -66 -73 -162q3 -91 79 -154q70 -57 165 -64q-127 51 -133 225zM447 231q7 -173 -139 -231q99 7 170 69q77 67 73 163q-4 92 -78 153q-68 56 -163 63q131 -52 137 -217z" />
    <glyph glyph-name="nine" unicode="9" horiz-adv-x="571" 
d="M191 0q133 -5 227 103q81 92 110 233q15 72 15 136q0 191 -111 278q-56 44 -126 49q123 -57 128 -239q6 -189 -128 -253q60 5 110 38q3 -101 -54 -202q-66 -117 -171 -143zM0 546q3 -94 66 -162.5t156 -75.5q-119 57 -125 243t125 249q-98 -8 -161.5 -82t-60.5 -172z" />
    <glyph glyph-name="colon" unicode=":" horiz-adv-x="276" 
d="M191 334q0 -23 -16 -39t-39 -16q-22 0 -38.5 16.5t-16.5 38.5q0 23 16 39t39 16t39 -16t16 -39zM199 46q0 -23 -16 -39t-39 -16q-22 0 -38.5 16.5t-16.5 38.5q0 23 16 39t39 16t39 -16t16 -39z" />
    <glyph glyph-name="semicolon" unicode=";" horiz-adv-x="300" 
d="M199 334q0 -23 -16 -39t-39 -16q-22 0 -38.5 16.5t-16.5 38.5q0 23 16 39t39 16t39 -16t16 -39zM202 8q0 -74 -88 -138l-22 -16h-14q-2 0 -2 2q0 4 8 12q56 40 56 94q0 39 -36 58q-20 10 -20 26q0 18 13 30t31 12q31 0 52.5 -24.5t21.5 -55.5z" />
    <glyph glyph-name="less" unicode="&#x3c;" horiz-adv-x="266" 
d="M219 71q0 -11 -12 -11q-5 0 -7 2l-153 160q-11 12 -11 23q0 10 9 19l150 145q6 6 14 6q9 0 9 -8t-6 -18l-91 -149l93 -151q5 -8 5 -18z" />
    <glyph glyph-name="equal" unicode="=" horiz-adv-x="700" 
d="M613 313q0 -9 -13 -9h-505q-7 0 -7 6v23q0 10 12 10h504q9 0 9 -10v-20zM612 182q0 -8 -12 -8h-506q-6 0 -6 6v22q0 10 12 10h504q8 0 8 -10v-20z" />
    <glyph glyph-name="greater" unicode="&#x3e;" horiz-adv-x="266" 
d="M36 71q0 -11 12 -11q5 0 7 2l153 160q11 12 11 23q0 10 -9 19l-150 145q-6 6 -14 6q-9 0 -9 -8t6 -18l91 -149l-93 -151q-5 -8 -5 -18z" />
    <glyph glyph-name="question" unicode="?" horiz-adv-x="415" 
d="M143 786l-121 14l-22 -141q38 97 143 127zM192 781q57 -26 89 -75.5t32 -111.5q0 -93 -56.5 -147.5t-149.5 -54.5q-39 0 -83 10l131 -272l-22 228q22 -4 48 -4q96 0 155 57t59 152q0 83 -59.5 146t-143.5 72zM192 0q18 0 31.5 13.5t13.5 31.5q0 19 -13 32.5t-32 13.5
t-32.5 -13.5t-13.5 -32.5t13.5 -32t32.5 -13z" />
    <glyph glyph-name="at" unicode="@" horiz-adv-x="811" 
d="M699 339q0 -78 -48 -140q-52 -67 -129 -67q-19 0 -36 6q-32 -13 -67 -13q-70 0 -118.5 48.5t-48.5 118.5t48.5 118.5t118.5 48.5q41 0 72 -16l48 19v-286q52 3 84 55q28 44 28 100q0 96 -69 156q-65 57 -163 56q-104 -1 -177.5 -74t-73.5 -177t73.5 -177.5t177.5 -73.5
q103 0 173 62l46 1q7 0 23 1t25 1h9l-6 -14h-7q-29 -3 -56 -27q-88 -80 -207 -80q-128 0 -217.5 89.5t-89.5 217.5t89.5 218.5t217.5 88.5q115 -2 196 -72q84 -75 84 -188zM487 206v172q-27 23 -68 23q-45 0 -77 -32t-32 -77t32 -77t77 -32q41 0 68 23z" />
    <glyph glyph-name="A" unicode="A" horiz-adv-x="862" 
d="M597 0h235q-55 27 -96 116l-135 287l-30 64h1l-141 333l-59 -154l-66 -154q-13 -31 -86 -191q-49 -107 -83 -167q-63 -114 -107 -134h160q-39 7 -45 45l6 35q23 79 57 137q32 43 116 43q-64 3 -64 49q0 13 7 31l34 87q10 25 46 98q34 68 49 60q19 -11 56 -97l59 -143
q8 -19 8 -30q0 -35 -52 -50l-17 -5q2 0 11 -1q34 -2 54 -4q57 -18 91 -102l40 -98q6 -52 -49 -55z" />
    <glyph glyph-name="B" unicode="B" horiz-adv-x="744" 
d="M86 710q0 73 -55 85h224q-41 -9 -57 -77v-223q7 -73 81 -92q-32 -14 -55 -43t-27 -62v-234q0 -52 57 -61l-224 1q48 6 56 59v647zM512 410q60 22 102 78t42 119q0 79 -62 136t-141 57q-23 0 -45 -5q59 -16 96 -72q35 -52 35 -116q0 -67 -40 -125q-42 -62 -106 -75
q11 -3 24 -5q164 -53 164 -189q0 -83 -62 -138q-53 -47 -140 -65q38 -10 77 -10q103 0 176 52q82 59 82 158q0 83 -61 138q-54 49 -141 62z" />
    <glyph glyph-name="C" unicode="C" horiz-adv-x="778" 
d="M170 383q-4 137 54 246q61 117 180 172q-163 -13 -270.5 -134t-102.5 -284q5 -156 111.5 -268t261.5 -124q-111 51 -173 161q-57 102 -61 231zM480 -10q146 11 268 244v-241q-18 22 -57 22q-32 0 -65 -12q-17 -6 -146 -13zM487 802h259v-252q-22 204 -259 252z" />
    <glyph glyph-name="D" unicode="D" horiz-adv-x="768" 
d="M619 388q4 135 -51 242q-61 114 -177 169q160 -13 266 -132t101 -279q-5 -153 -110 -263.5t-258 -122.5q110 51 170 159q55 98 59 227zM201 722q34 72 55 78h-226q55 -12 55 -80l1 -642q-34 -72 -55 -78h226q-56 12 -56 80v642z" />
    <glyph glyph-name="E" unicode="E" horiz-adv-x="761" 
d="M234 372q-28 -22 -28 -61v-69q0 -30 17 -123q13 -29 35 -55q49 -57 114 -61q-100 3 -186 70q-95 72 -95 169v472q-17 71 -61 86h235q-59 -14 -59 -89v-226q0 -46 25 -66q1 -10 137 -16q-90 -3 -134 -31zM465 0q138 11 266 260v-258q-19 25 -60 25q-29 0 -68 -13.5
t-138 -13.5zM418 800h271l1 -269q-12 111 -89 182q-69 63 -183 87z" />
    <glyph glyph-name="F" unicode="F" horiz-adv-x="680" 
d="M235 433q-28 23 -28 76v50q0 31 16 124q51 110 150 117q-99 -3 -187 -71q-95 -74 -95 -170v-478q-14 -72 -61 -81h236q-57 13 -57 81v243q5 41 37 58q17 19 123 21q-90 2 -134 30zM435 800h210v-208q-12 114 -112 172q-43 25 -98 36z" />
    <glyph glyph-name="G" unicode="G" horiz-adv-x="828" 
d="M508 795h229l1 -224q-14 122 -123 185q-47 27 -107 39zM621 -46q0 -31 -16 -124q-51 -110 -150 -117q99 3 187 71q95 74 95 170v360q17 71 61 86h-236q59 -14 59 -89v-357zM164 400q-6 140 67 247t205 148q-173 2 -293 -121t-113 -296q6 -167 128.5 -279.5t289.5 -106.5
q27 1 55 6q-146 20 -242 138q-91 113 -97 264z" />
    <glyph glyph-name="H" unicode="H" horiz-adv-x="815" 
d="M199 80q0 -67 57 -79h-226q48 12 56 79v639q0 69 -55 81h226q-42 -9 -57 -78v-224q12 -81 116 -94q-109 -21 -117 -107v-217zM616 79q0 -67 -57 -79h226q-48 12 -56 79v639q0 69 55 81h-226q41 -9 57 -78v-224q-12 -81 -116 -94q109 -21 117 -107v-217z" />
    <glyph glyph-name="I" unicode="I" horiz-adv-x="292" 
d="M201 722q34 72 55 78h-226q55 -12 55 -80l1 -642q-34 -72 -55 -78h226q-56 12 -56 80v642z" />
    <glyph glyph-name="J" unicode="J" horiz-adv-x="380" 
d="M175 50q0 -84 -17 -127q-12 -30 -37 -59q-51 -59 -121 -64q102 3 195 74q102 76 102 175v658q24 80 65 92l-253 1q17 -5 32 -18q33 -28 33 -75z" />
    <glyph glyph-name="K" unicode="K" horiz-adv-x="845" 
d="M197 81q0 -66 57 -78h-224q48 12 55 78l1 633q0 68 -55 80h224q-41 -9 -57 -77v-223q0 -64 84 -91q-85 -18 -85 -107v-215zM518 441l297 388l-458 -428h1l-1 -1h3q109 -41 191 -98q195 -136 210 -330q3 29 3 57q0 189 -106 310q-61 70 -140 102z" />
    <glyph glyph-name="L" unicode="L" horiz-adv-x="695" 
d="M201 722q34 72 55 78h-226q55 -12 55 -80l1 -642q-34 -72 -55 -78h226q-56 12 -56 80v642zM367 3q152 12 293 287v-284q-20 27 -66 27q-32 0 -75 -15t-152 -15z" />
    <glyph glyph-name="M" unicode="M" horiz-adv-x="854" 
d="M90 709v-618q0 -74 -55 -85h154q-66 29 -60 85v450l240 -584l283 652l2 -518q-7 -73 -55 -87h225q-55 13 -55 87l-1 625q3 21 9 35q15 36 46 47h-225q4 -1 7 -2l-5 1h-1q38 -17 38 -59q0 -10 -2 -19l-235 -530l-212 549q-3 8 -3 16q0 32 37 42h-1q1 0 2 1h-189
q56 -3 56 -88z" />
    <glyph glyph-name="N" unicode="N" horiz-adv-x="768" 
d="M684 -53l-551 678v-536q-3 -32 13 -56t47 -29h-162q55 9 55 85v621q0 20 -7 41q-14 42 -49 44h221q-28 -8 -28 -36q0 -13 6 -27l408 -509v488q0 67 -60 84h161q-54 -10 -54 -84v-764z" />
    <glyph glyph-name="O" unicode="O" horiz-adv-x="877" 
d="M170 386q-9 310 190 416q-151 -14 -245 -142q-88 -121 -84 -276q4 -149 92 -261q94 -119 238 -132q-182 96 -191 395zM702 401q9 -308 -186 -411q151 14 245 143q89 121 85 276q-4 148 -92 260q-94 119 -238 132q178 -94 186 -400z" />
    <glyph glyph-name="P" unicode="P" horiz-adv-x="698" 
d="M200 78q0 -27 15.5 -50.5t41.5 -27.5h-227q49 11 56 78l1 641q0 69 -56 81h227q-42 -9 -58 -78v-389v-12q-1 -7 -1 -11q0 -88 64 -119q-32 5 -47.5 -23.5t-15.5 -89.5zM550 501q4 -107 -48 -191.5t-149 -126.5q132 10 223 97q96 92 92 221q-4 123 -100 208
q-90 81 -216 90q92 -39 143 -117.5t55 -180.5z" />
    <glyph glyph-name="Q" unicode="Q" horiz-adv-x="824" 
d="M597 787q87 -50 137 -132.5t50 -181.5q0 -145 -94 -247q-67 -72 -148 -93q-19 -5 -70 -16v103q0 21 3 37q6 32 43 38q1 2 -6 2h-181q3 0 5 -2q31 -5 38 -38q1 -20 1 -36v-104q-23 1 -66 16q-83 20 -151 97q-66 74 -83 160q-8 41 -8 83q0 115 65 205q48 66 121 109
q-69 -25 -124 -90q-51 -59 -76 -133q-27 -78 -27 -160q0 -196 152 -322q88 -73 197 -84v-105q5 -14 55 -236q15 106 33 189q9 42 9 48v103q112 12 202 86q87 72 127 180q24 64 24 141q0 88 -31 172q-60 159 -197 211z" />
    <glyph glyph-name="R" unicode="R" horiz-adv-x="760" 
d="M162 107q0 -64 55 -76h-217q46 12 54 76v613q0 66 -53 77l217 1q-40 -9 -55 -75v-216q0 -62 81 -88q-82 -18 -82 -104v-208zM486 438l25 12q95 57 91 152q-4 81 -72 141q-66 57 -148 57q-34 0 -45 -2q67 -5 114 -64q44 -56 44 -125q0 -66 -58 -122q-51 -50 -120 -68h15
q-9 0 -21 -1q14 -4 28 -7q100 -36 174 -89q180 -128 210 -322q1 20 1 40q0 171 -91 287q-66 83 -147 111z" />
    <glyph glyph-name="S" unicode="S" horiz-adv-x="598" 
d="M244 -9q-112 9 -214 209v-207q15 19 48 19q25 0 79 -10.5t87 -10.5zM331 797h196v-195q-18 157 -196 195zM269 798v0q-113 4 -193 -91q-44 -52 -44 -120q0 -78 58 -132q38 -45 101 -73l137 -61q41 -18 80 -38q48 -24 64 -87q5 -20 5 -37q0 -44 -26 -90q-38 -67 -141 -77
q92 -8 180 50q72 47 78 167q5 92 -84 159q-24 14 -103 50q-101 46 -162 71q-85 35 -88 134q-2 55 25 98q39 63 113 77z" />
    <glyph glyph-name="T" unicode="T" horiz-adv-x="668" 
d="M335 -120l-60 375l-2 -1l1 463q0 70 -57 82h231q-49 -17 -57 -79q1 -1 1 -2l-1 -468zM190 800h-160v-238q16 197 160 238zM479 799h159v-238q-11 131 -86 198q-32 28 -73 40z" />
    <glyph glyph-name="U" unicode="U" horiz-adv-x="850" 
d="M90 257q0 -107 84 -194q76 -79 213 -83q-109 5 -165 117q-14 40 -14 95v518q-8 61 66 86h-243q50 -14 59 -84v-455zM757 257q0 -119 -83 -192q-40 -35 -71 -51q-59 -30 -142 -32q106 4 163 117q15 30 15 83v530q8 61 -64 83h245q-54 -13 -63 -83v-455z" />
    <glyph glyph-name="V" unicode="V" horiz-adv-x="882" 
d="M482 191l249 542q4 9 4 19q0 30 -44 45h161q-44 -18 -72 -80l-336 -752l-346 765q-21 47 -68 67h243q-55 -4 -49 -57z" />
    <glyph glyph-name="W" unicode="W" horiz-adv-x="964" 
d="M662 272l170 458q4 11 4 20q0 31 -35 47h133q-34 -21 -54 -81l-254 -751l-206 762q-14 52 -55 70h202q-43 -4 -39 -57zM480 382l-101 -134l-186 492q-1 5 -1 11q0 39 40 46h-202q35 -21 52 -67l288 -762z" />
    <glyph glyph-name="X" unicode="X" horiz-adv-x="864" 
d="M834 1h-265q34 13 34 48q0 29 -21 65l-552 685l268 1q-30 -15 -30 -46q0 -43 44 -98zM290 0h-259l295 296q-80 -110 -80 -195q0 -66 44 -101zM571 800h260l-295 -296q79 109 79 193q0 67 -44 103z" />
    <glyph glyph-name="Y" unicode="Y" horiz-adv-x="726" 
d="M30 800q126 -9 170 -201q19 -82 19 -190v-326q0 -72 -61 -83h243q-40 0 -57 88v316q0 246 -157 346q-66 42 -157 50zM475 795h221l-335 -391q143 202 143 317q0 53 -29 74z" />
    <glyph glyph-name="Z" unicode="Z" horiz-adv-x="645" 
d="M30 0h215q-42 0 -42 43q0 27 16 64l396 692h-224q53 6 53 -38q0 -40 -44 -117zM338 799q-165 -21 -250 -171q-36 -64 -53 -146v317h303zM294 0q173 7 263 159q38 64 57 151v-310h-320z" />
    <glyph glyph-name="bracketleft" unicode="[" horiz-adv-x="206" 
d="M192 -128q0 -15 -8 -15h-155v873h145q9 0 9 -9v-9q0 -5 -11 -5l-81 -3q-9 0 -9 -12v-796q0 -12 19 -12h84q7 0 7 -12z" />
    <glyph glyph-name="backslash" unicode="\" horiz-adv-x="442" 
d="M84 800l-84 -36l421 -764z" />
    <glyph glyph-name="bracketright" unicode="]" horiz-adv-x="206" 
d="M175 -143h-155q-8 0 -8 15q0 12 7 12h84q19 0 19 12v796q0 12 -9 12l-81 3q-11 0 -11 5v9q0 9 9 9h145v-873z" />
    <glyph glyph-name="asciicircum" unicode="^" horiz-adv-x="438" 
d="M397 554q0 -11 -11 -11q-10 0 -18 5l-152 71l-149 -70q-11 -5 -18 -5q-8 0 -8 8t6 14l145 151q8 8 19 8t23 -11l160 -153q3 -3 3 -7z" />
    <glyph glyph-name="underscore" unicode="_" horiz-adv-x="500" 
d="M500 -110h-500v25h500v-25z" />
    <glyph glyph-name="grave" unicode="`" horiz-adv-x="223" 
d="M42 729q0 -74 88 -138l22 -16h14q2 0 2 2q0 4 -8 12q-56 40 -56 94q0 39 36 58q20 10 20 26q0 18 -13 30t-31 12q-31 0 -52.5 -24.5t-21.5 -55.5z" />
    <glyph glyph-name="a" unicode="a" horiz-adv-x="527" 
d="M351 0h132q-31 15 -54 65l-76 162q-3 7 -17 36h1l-79 187l-34 -87l-37 -86q-7 -18 -48 -108q-28 -60 -46 -94q-36 -64 -61 -75h90q-22 4 -25 25l3 20q13 44 32 77q18 24 65 24q-36 2 -36 28q0 7 4 17l20 49q5 14 24.5 54t28.5 35q11 -6 31 -54l34 -81q4 -11 4 -17
q0 -19 -29 -28l-10 -3h7q19 -1 30 -3q32 -10 51 -57l23 -55q3 -29 -28 -31z" />
    <glyph glyph-name="b" unicode="b" horiz-adv-x="458" 
d="M75 398q0 41 -31 48h126q-24 -6 -32 -44v-125q3 -41 45 -52q-41 -18 -46 -59v-132q0 -29 32 -34l-126 1q27 3 32 33v364zM314 229q34 12 57.5 43.5t23.5 67.5q0 44 -34.5 76t-79.5 32q-13 0 -25 -2q33 -10 53 -40.5t20 -65.5q0 -38 -23 -71.5t-59 -41.5q6 -1 14 -3
q92 -29 92 -106q0 -90 -114 -114q22 -6 44 -6q58 0 99 30q46 33 46 88q0 47 -35 78q-30 27 -79 35z" />
    <glyph glyph-name="c" unicode="c" horiz-adv-x="465" 
d="M109 221q-2 77 30 138q35 66 102 97q-92 -8 -152.5 -76t-57.5 -159q3 -88 63 -151t147 -70q-63 29 -97 91q-32 57 -35 130zM284 -1q82 7 151 138v-136q-11 13 -33 13q-17 0 -36 -7q-10 -4 -82 -8zM288 456h145v-142q-12 115 -145 142z" />
    <glyph glyph-name="d" unicode="d" horiz-adv-x="480" 
d="M374 218q2 76 -29 136q-34 65 -100 95q90 -7 150 -74t57 -157q-3 -86 -62 -148t-145 -69q123 58 129 217zM139 406q19 41 30 44h-127q31 -7 31 -45l1 -361q-19 -41 -31 -44h127q-31 7 -31 45v361z" />
    <glyph glyph-name="e" unicode="e" horiz-adv-x="472" 
d="M155 208q-15 -13 -15 -35v-39q0 -16 9 -69q27 -62 84 -65q-56 2 -105 39q-53 41 -53 95v266q-10 40 -34 48h132q-33 -8 -33 -50v-127q0 -26 14 -37q0 -6 77 -9q-51 -2 -76 -17zM285 -2q78 6 150 147v-146q-11 15 -34 15q-14 0 -52 -8t-64 -8zM259 448h152l1 -151
q-13 122 -153 151z" />
    <glyph glyph-name="f" unicode="f" horiz-adv-x="449" 
d="M182 244q-15 12 -15 42v28q0 18 9 70q28 62 84 66q-56 -2 -105 -40q-54 -41 -54 -96v-268q-7 -41 -34 -46h133q-32 7 -32 46v136q2 23 21 33q9 11 69 12q-51 1 -76 17zM295 450h118v-117q-10 96 -118 117z" />
    <glyph glyph-name="g" unicode="g" horiz-adv-x="525" 
d="M322 448h129v-126q-12 103 -129 126zM385 -25q0 -17 -9 -70q-29 -61 -84 -65q56 2 105 40q54 41 54 95v203q9 40 34 48h-133q33 -8 33 -50v-201zM128 226q-3 79 38 139t115 83q-97 1 -164.5 -68t-63.5 -166q4 -94 72.5 -157.5t162.5 -59.5q15 0 31 3q-82 12 -136 78
q-51 63 -55 148z" />
    <glyph glyph-name="h" unicode="h" horiz-adv-x="499" 
d="M139 44q0 -37 32 -44h-127q27 7 31 44v360q0 39 -31 45h128q-24 -5 -32 -43v-126q6 -46 65 -53q-62 -12 -66 -60v-123zM374 44q0 -38 -33 -45h128q-27 7 -32 45v359q0 39 31 46h-127q23 -5 32 -44v-126q-7 -46 -65 -53q61 -12 66 -60v-122z" />
    <glyph glyph-name="i" unicode="i" horiz-adv-x="227" 
d="M142 406q19 41 31 44h-128q31 -7 31 -45l1 -361q-19 -41 -31 -44h127q-31 7 -31 45v361z" />
    <glyph glyph-name="j" unicode="j" horiz-adv-x="273" 
d="M132 0q0 -47 -10 -71q-6 -17 -20 -34q-29 -33 -68 -36q57 2 109 42q58 43 58 98v371q13 45 36 51l-142 1q36 -12 36 -52z" />
    <glyph glyph-name="k" unicode="k" horiz-adv-x="528" 
d="M141 44q0 -37 32 -44h-126q27 7 31 44l1 356q0 38 -31 45h126q-24 -5 -32 -43v-126q0 -36 47 -51q-48 -10 -48 -60v-121zM322 246l167 219l-258 -241h1l-1 -1h2q213 -79 225 -240q2 16 2 32q0 106 -60 174q-34 39 -78 57z" />
    <glyph glyph-name="l" unicode="l" horiz-adv-x="442" 
d="M145 406q19 41 30 44h-127q31 -7 31 -45l1 -361q-19 -41 -31 -44h127q-31 7 -31 45v361zM238 2q85 6 165 161v-160q-12 16 -37 16q-17 0 -58.5 -8.5t-69.5 -8.5z" />
    <glyph glyph-name="m" unicode="m" horiz-adv-x="569" 
d="M92 395v-347q0 -42 -31 -48h87q-37 16 -34 48v253l135 -329l159 367l2 -291q-4 -41 -31 -49h126q-31 7 -31 49v351q5 37 31 47h-127l4 -2l-3 1v0q21 -10 21 -33q0 -6 -1 -11l-132 -298l-120 309q-1 4 -1 9q0 18 21 23h-1q1 0 1 1h-106q31 -2 31 -50z" />
    <glyph glyph-name="n" unicode="n" horiz-adv-x="483" 
d="M413 -32l-310 381v-301q-4 -42 34 -48h-91q31 5 31 48v349q0 46 -32 48h125q-16 -5 -16 -20q0 -8 3 -15l230 -287v275q0 37 -34 47h91q-31 -6 -31 -47v-430z" />
    <glyph glyph-name="o" unicode="o" horiz-adv-x="562" 
d="M135 222q-6 175 106 234q-84 -8 -137 -80q-50 -68 -48 -155q3 -84 52 -147q53 -67 134 -74q-103 54 -107 222zM434 231q5 -174 -105 -232q85 8 138 81q50 68 48 155q-3 84 -52 146q-53 68 -134 75q100 -53 105 -225z" />
    <glyph glyph-name="p" unicode="p" horiz-adv-x="451" 
d="M150 44q0 -39 32 -44h-128q28 6 32 44v360q0 39 -31 46h127q-23 -5 -32 -44v-219q0 -2 -1 -6v-7q0 -49 36 -67q-18 3 -27 -13t-8 -50zM347 282q2 -60 -27.5 -108t-83.5 -71q74 5 126.5 55.5t50.5 123.5q-2 69 -54.5 116t-123.5 51q107 -45 112 -167z" />
    <glyph glyph-name="q" unicode="q" horiz-adv-x="555" 
d="M374 444q105 -61 105 -177q0 -81 -53 -139q-38 -40 -83 -52q-11 -3 -39 -9v58q0 12 1 21q4 18 24 21q0 1 -3 1h-102q2 0 3 -1q17 -3 21 -21q1 -12 1 -21v-58q-13 0 -37 9q-47 11 -84.5 53.5t-47.5 91.5q-4 22 -4 46q0 116 104 177q-79 -29 -112 -126q-15 -43 -15 -90
q0 -85 55 -151q57 -69 141 -77v-59q3 -8 31 -133q9 60 19 106q4 21 5 27v58q63 7 112.5 48t72.5 102q13 36 13 79q0 52 -19 100q-34 87 -109 116z" />
    <glyph glyph-name="r" unicode="r" horiz-adv-x="499" 
d="M137 43q0 -36 31 -43h-122q26 7 30 43v345q0 37 -29 43h122q-23 -5 -31 -42v-121q0 -35 45 -50q-46 -10 -46 -58v-117zM319 229q7 3 14 7q54 32 52 85q-2 46 -40 79t-84 33q-19 0 -25 -2q37 -2 62.5 -34.5t25.5 -71.5q0 -37 -32 -69q-29 -28 -68 -38h9h-12q8 -3 16 -4
q191 -70 216 -231v22q0 97 -51 162q-37 46 -83 62z" />
    <glyph glyph-name="s" unicode="s" horiz-adv-x="381" 
d="M169 0q-63 5 -120 118v-117q8 11 27 11q13 0 43.5 -6t49.5 -6zM218 453h110v-109q-10 88 -110 109zM183 454v0q-64 2 -108 -51q-25 -30 -25 -68q0 -44 32 -74q22 -25 57 -41l77 -34q24 -11 45 -22q39 -19 39 -69q0 -41 -26 -65.5t-68 -28.5q52 -5 101 28q41 26 44 94
q3 52 -47 89q-14 8 -58 28q-57 26 -91 40q-48 20 -50 76q-1 30 15 55q22 35 63 43z" />
    <glyph glyph-name="t" unicode="t" horiz-adv-x="452" 
d="M232 -70l-34 211l-1 -1l1 261q0 39 -32 46h130q-28 -10 -32 -44v-2v-263zM150 448h-90v-134q10 110 90 134zM313 447h89v-134q-9 111 -89 134z" />
    <glyph glyph-name="u" unicode="u" horiz-adv-x="569" 
d="M97 156q0 -60 47 -109q43 -45 120 -47q-61 3 -93 66q-8 22 -8 53v292q-4 34 37 48h-136q28 -8 33 -47v-256zM472 156q0 -67 -47 -108q-22 -20 -39 -29q-33 -17 -80 -18q60 2 91 66q9 17 9 47v298q4 34 -36 46h138q-31 -7 -36 -46v-256z" />
    <glyph glyph-name="v" unicode="v" horiz-adv-x="550" 
d="M302 127l140 305q3 5 3 11q0 17 -25 25h91q-26 -10 -41 -45l-189 -423l-195 430q-11 27 -38 38h137q-31 -2 -28 -32z" />
    <glyph glyph-name="w" unicode="w" horiz-adv-x="648" 
d="M421 171l96 258q2 6 2 11q0 17 -20 26h75q-19 -11 -30 -45l-143 -423l-116 429q-8 29 -31 39h114q-24 -2 -22 -32zM319 233l-57 -75l-105 276v6q0 22 22 26h-113q19 -11 29 -37l162 -429z" />
    <glyph glyph-name="x" unicode="x" horiz-adv-x="572" 
d="M526 1h-149q19 7 19 27q0 16 -12 36l-310 385l151 1q-17 -8 -17 -26q0 -24 24 -55zM220 0h-146l166 167q-45 -62 -45 -110q0 -37 25 -57zM378 450h146l-166 -166q45 61 45 108q0 38 -25 58z" />
    <glyph glyph-name="y" unicode="y" horiz-adv-x="477" 
d="M50 450q61 -4 88 -85q18 -56 18 -135v-183q0 -41 -34 -47h137q-23 0 -32 50v177q0 139 -89 195q-37 24 -88 28zM300 447h125l-189 -220q81 114 81 179q0 29 -17 41z" />
    <glyph glyph-name="z" unicode="z" horiz-adv-x="433" 
d="M55 0h121q-24 0 -24 24q0 15 9 36l223 389h-126q30 4 30 -21q0 -23 -25 -66zM228 449q-137 -17 -170 -178v178h170zM204 0q143 6 180 174v-174h-180z" />
    <glyph glyph-name="braceleft" unicode="{" horiz-adv-x="183" 
d="M176 740l-35 -22q-30 -19 -30 -106q0 -15 2 -32l16 -139q2 -17 2 -31q0 -72 -59 -165q58 -92 58 -164q0 -15 -2 -32l-16 -138q-2 -17 -2 -32q0 -87 30 -106l35 -22l-48 6q-70 9 -70 162q0 16 2 32l20 158q1 4 1 14q0 97 -51 123q52 23 52 122q0 6 -1 14l-20 157
q-2 16 -2 33q0 153 70 162z" />
    <glyph glyph-name="bar" unicode="|" horiz-adv-x="292" 
d="M201 722q34 72 55 78h-226q55 -12 55 -80l1 -642q-34 -72 -55 -78h226q-56 12 -56 80v642z" />
    <glyph glyph-name="braceright" unicode="}" horiz-adv-x="183" 
d="M169 246q-51 -26 -51 -123q0 -10 1 -14l20 -158q2 -16 2 -32q0 -153 -70 -162l-48 -6l35 22q30 19 30 106q0 15 -2 32l-16 138q-2 17 -2 32q0 72 58 164q-59 93 -59 165q0 14 2 31l16 139q2 17 2 32q0 87 -30 106l-35 22l48 -6q70 -9 70 -162q0 -17 -2 -33l-20 -157
q-1 -8 -1 -14q0 -99 52 -122z" />
    <glyph glyph-name="asciitilde" unicode="~" horiz-adv-x="824" 
d="M428 302q-22 -14 -22 -66v-118q19 -1 39 0v119q0 16 -1 36q-4 19 -16 29zM309 237q0 16 -1 36q-7 33 -38 38q-2 2 -5 2h317q7 0 6 -2q-29 -5 -39 -27q-7 -14 -7 -48v-103q87 27 148 93q94 102 94 247q0 99 -50 181.5t-137 132.5q142 -54 201 -223q27 -78 27 -160
q0 -194 -152 -322q-46 -39 -131 -60v-112l-42 -237q-50 222 -55 236v98q-20 -1 -39 -1v-96l-42 -237q-50 222 -55 236v107q-74 17 -131 66q-152 131 -152 322q0 177 100 290q61 69 127 93q-88 -52 -137 -133t-49 -181q0 -140 91 -243q68 -77 151 -97v104z" />
    <glyph glyph-name="uni00A0" unicode="&#xa0;" horiz-adv-x="1000" 
d="M814 386q0 -100 -120 -141l-173 -42q-3 -158 -18 -475h-22q0 12 -11 12q2 131 -16 497q-7 -77 -10 -215q-8 -339 -8 -346l-25 -7q0 12 -12 12q0 26 -6 51t-6 28v227q0 85 -9 174q-9 -54 -9 -131v-277q0 -12 -13 -25h-21q0 12 -12 12l-18 457l-153 49q-101 40 -152 110v78
q14 16 44 38q38 29 53 28h25q0 -12 12 -12v-27q-37 -14 -47 -20q-24 -15 -46 -49q6 -5 6 -10q62 -40 168 -53l161 -16q6 172 23 521q23 0 34 -19l17 -497l167 19q98 14 151 62v16q-6 9 -52 37q-42 25 -42 29v19h37q22 1 97 -59q6 -15 6 -55zM797 417q-15 14 -15 22
q0 -5 -1 -20.5t-1 -25.5l-24 -26q38 18 41 50zM70 356q-30 20 -47 37v16q22 33 22 44q-13 -6 -33 -19q0 -6 -3 -17t-3 -13q3 -17 26 -32.5t38 -15.5z" />
    <glyph glyph-name="endash" unicode="&#x2013;" horiz-adv-x="333" 
d="M306 244q0 -15 -21 -15h-244q-15 0 -15 16v12q0 15 22 15h243q15 0 15 -16v-12z" />
    <glyph glyph-name="emdash" unicode="&#x2014;" horiz-adv-x="500" 
d="M500 -110h-500v25h500v-25z" />
    <glyph glyph-name="quoteleft" unicode="&#x2018;" 
d="M202 549q0 -4 -8 -12q-56 -40 -56 -94q0 -39 36 -58q20 -10 20 -26q0 -18 -13 -30t-31 -12q-31 0 -52.5 24.5t-21.5 55.5q0 74 88 138l22 16h14q2 0 2 -2z" />
    <glyph glyph-name="quoteright" unicode="&#x2019;" 
d="M201 465q0 -41 -25 -78.5t-62 -59.5l-24 -14l-8 -1h-5q-2 7 7 14q56 41 56 94q0 40 -37 59q-21 11 -21 25q0 18 14 30t32 12q30 0 51.5 -25t21.5 -56z" />
    <glyph glyph-name="quotedblleft" unicode="&#x201c;" horiz-adv-x="532" 
d="M456 548q0 -6 -8 -12q-56 -40 -56 -93q0 -41 36 -59q21 -10 21 -26q0 -18 -13.5 -29.5t-31.5 -11.5q-30 0 -52 24.5t-22 55.5q0 81 88 138l23 15h14q1 0 1 -2zM203 549q0 -4 -8 -12q-56 -40 -56 -94q0 -39 36 -58q20 -10 20 -26q0 -18 -13 -30t-31 -12q-31 0 -52.5 24.5
t-21.5 55.5q0 74 88 138l22 16h14q2 0 2 -2z" />
    <glyph glyph-name="quotedblright" unicode="&#x201d;" horiz-adv-x="532" 
d="M455 466q0 -74 -88 -138l-22 -16h-14q-2 0 -2 2q0 4 8 12q56 40 56 94q0 39 -36 58q-20 10 -20 26q0 18 13 30t31 12q31 0 52.5 -24.5t21.5 -55.5zM202 466q0 -74 -88 -138l-22 -16h-14q-2 0 -2 2q0 4 8 12q56 40 56 94q0 39 -36 58q-20 10 -20 26q0 18 13 30t31 12
q31 0 52.5 -24.5t21.5 -55.5z" />
    <glyph glyph-name="ellipsis" unicode="&#x2026;" horiz-adv-x="533" 
d="M197 47q0 -23 -17 -40t-40 -17t-40 17t-17 40t17 40t40 17t40 -17t17 -40zM327 47q0 -23 -17 -40t-40 -17t-40 17t-17 40t17 40t40 17t40 -17t17 -40zM460 45q0 -23 -17 -40t-40 -17t-40 17t-17 40t17 40t40 17t40 -17t17 -40z" />
  </font>
</defs>
</svg>
